# xmcd
#
# Track frame offsets:
#	150
#	23323
#	48056
#	66799
#	84775
#	108882
#	135413
#	166771
#	183299
#	215012
#	235910
#	255295
#	273650
#
# Disc length: 3841 seconds
# Revision: 0
# Processed by: cddbd v1.5.2PL0 Copyright (c) Steve Scherf et al.
# Submitted via: dBpowerAMP V12.0
#
DISCID=970eff0d
DTITLE=King Earl Boogie Band - Loaded and Live
DYEAR=2006
DGENRE=Rock
TTITLE0=Money to Burn
TTITLE1=Somebody Changed the Lock
TTITLE2=Matchbox
TTITLE3=Going to the Dance
TTITLE4=Who Do You Love
TTITLE5=Blue Slate Slide
TTITLE6=What'd I Say
TTITLE7=Jelly Roll Baker
TTITLE8=Slow Down
TTITLE9=Rambling on My Mind
TTITLE10=Rollin' and Tumblin'
TTITLE11=Big Road
TTITLE12=Marie Marie
EXTD=
EXTT0=
EXTT1=
EXTT2=
EXTT3=
EXTT4=
EXTT5=
EXTT6=
EXTT7=
EXTT8=
EXTT9=
EXTT10=
EXTT11=
EXTT12=
PLAYORDER=
